<svg width="29" height="28" viewBox="0 0 29 28" fill="none" xmlns="http://www.w3.org/2000/svg">
<path d="M22.577 21.2559C22.6581 21.3372 22.7224 21.4337 22.7663 21.54C22.8102 21.6462 22.8328 21.76 22.8328 21.875C22.8328 21.99 22.8102 22.1038 22.7663 22.21C22.7224 22.3163 22.6581 22.4128 22.577 22.4941C22.4959 22.5754 22.3996 22.6398 22.2937 22.6838C22.1877 22.7278 22.0742 22.7505 21.9595 22.7505C21.8448 22.7505 21.7313 22.7278 21.6253 22.6838C21.5194 22.6398 21.4231 22.5754 21.342 22.4941L14.1045 15.237L6.86698 22.4941C6.70321 22.6582 6.48109 22.7505 6.24949 22.7505C6.01788 22.7505 5.79576 22.6582 5.63199 22.4941C5.46823 22.3299 5.37622 22.1072 5.37622 21.875C5.37622 21.6428 5.46823 21.4201 5.63199 21.2559L12.8706 14L5.63199 6.74406C5.46823 6.57988 5.37622 6.35719 5.37622 6.125C5.37622 5.8928 5.46823 5.67012 5.63199 5.50594C5.79576 5.34175 6.01788 5.24951 6.24949 5.24951C6.48109 5.24951 6.70321 5.34175 6.86698 5.50594L14.1045 12.763L21.342 5.50594C21.5058 5.34175 21.7279 5.24951 21.9595 5.24951C22.1911 5.24951 22.4132 5.34175 22.577 5.50594C22.7408 5.67012 22.8328 5.8928 22.8328 6.125C22.8328 6.35719 22.7408 6.57988 22.577 6.74406L15.3384 14L22.577 21.2559Z" fill="black"/>
</svg>
