<svg width="13" height="13" viewBox="0 0 13 13" fill="none" xmlns="http://www.w3.org/2000/svg">
<path d="M4.25973 4.01074C4.22671 4.179 4.18687 4.3416 4.10416 4.49323C4.07892 4.53951 4.31746 4.34232 4.34315 4.32414C4.38366 4.29547 4.42365 4.26604 4.4649 4.23846C4.50318 4.21287 4.55635 4.14502 4.58891 4.17759C4.61588 4.20456 4.49459 4.35008 4.48858 4.35796C4.39986 4.47409 4.23712 4.5995 4.17857 4.73335C4.17638 4.73834 4.38655 4.60117 4.39952 4.59244C4.43731 4.56699 4.85468 4.28301 4.90005 4.37374C4.9241 4.42184 4.878 4.54328 4.86623 4.57891C4.81315 4.73958 4.73904 4.89151 4.67008 5.04562C4.64993 5.09064 4.58041 5.20765 4.62498 5.18653C4.70325 5.14946 4.78313 5.07456 4.85495 5.02984C5.03647 4.91681 5.33958 4.69693 5.56855 4.71081C5.63646 4.71492 5.52966 4.84261 5.49527 4.90132C5.35647 5.13829 5.19773 5.36049 5.02856 5.57658C4.91202 5.72546 4.77378 5.86737 4.67008 6.02638C4.66325 6.03685 4.65096 6.05016 4.65655 6.06133C4.68073 6.1097 4.75799 6.02327 4.80648 5.99933C5.1505 5.82947 5.49369 5.6585 5.84474 5.50331C6.03015 5.42134 6.34266 5.24494 6.56284 5.2305C6.59373 5.22847 6.56925 5.2961 6.55382 5.32294C6.43568 5.5285 6.276 5.71428 6.11755 5.88885C5.82488 6.21131 5.50769 6.50718 5.17962 6.79296C5.0169 6.9347 4.78133 7.08709 4.65204 7.26869C4.61095 7.32639 4.79982 7.28295 4.86397 7.2529C5.3554 7.02277 5.81461 6.7186 6.2889 6.45702C7.06584 6.02851 7.85996 5.63743 8.66528 5.26545C8.94458 5.13644 9.7352 4.73336 9.54008 4.97122C9.45517 5.07473 8.87677 5.58866 8.85016 5.61153C8.24081 6.13549 7.59997 6.61658 6.945 7.08155C6.51699 7.3854 6.05438 7.66499 5.65309 8.00595C5.62449 8.03026 5.58231 8.05313 5.57869 8.0905C5.57647 8.11346 5.62604 8.08682 5.64633 8.07585C5.7195 8.03629 5.78851 7.98917 5.85601 7.94057C6.27179 7.6412 6.65028 7.28529 7.03293 6.94627C7.44135 6.58442 7.87969 6.23128 8.24367 5.82234C8.30632 5.75195 8.42913 5.57025 8.33611 5.55517C8.18413 5.53052 7.86704 5.76949 7.78485 5.82009C6.9544 6.33133 6.15143 6.88725 5.31039 7.38142C5.23235 7.42727 5.15308 7.47103 5.07365 7.51444C5.01596 7.54597 4.87087 7.64647 4.88877 7.58321C4.90045 7.54197 4.93144 7.50869 4.95641 7.47386C5.031 7.36982 5.43902 6.84343 5.46822 6.80649C5.90776 6.25032 6.36287 5.70758 6.83227 5.17639C6.94679 5.04679 7.06274 4.91845 7.17948 4.79085C7.23636 4.72867 7.2944 4.66756 7.35309 4.60709C7.36883 4.59088 7.39751 4.53887 7.40269 4.56087C7.40875 4.58664 7.37283 4.6046 7.3576 4.62626C7.12786 4.95291 7.4184 4.53491 7.08591 5.0118C6.83583 5.3705 6.58864 5.7311 6.33174 6.085C6.10197 6.40155 6.08118 6.4231 5.86278 6.71405C5.82569 6.76345 5.78749 6.81208 5.7523 6.86285C5.69771 6.9416 5.73071 6.91377 5.78386 6.86849C6.04931 6.64237 6.29739 6.39809 6.56622 6.17519C7.16642 5.67755 7.79269 5.21765 8.44884 4.79648C8.76947 4.59067 9.11523 4.36619 9.46568 4.2069C9.47997 4.2004 9.5022 4.18553 9.5119 4.19788C9.55242 4.24944 9.43143 4.30199 9.38451 4.34781C8.53677 5.17584 7.5313 5.86059 6.51662 6.46378C6.05482 6.73831 5.8036 6.8698 5.34759 7.1041C5.21595 7.17174 4.8155 7.35581 4.95867 7.31829C5.08396 7.28545 5.22418 7.20556 5.35774 7.21909C5.5122 7.23473 5.33885 7.48433 5.31941 7.5167C5.0459 7.97212 4.66935 8.36153 4.3161 8.75449C4.30055 8.77178 4.18171 8.86046 4.25973 8.86046" stroke="white" stroke-width="3" stroke-linecap="round"/>
<path d="M7.99351 7.52121C7.99351 7.88635 7.98977 8.44465 8.31254 8.6925C8.55957 8.88218 8.55568 8.39876 8.51433 8.28102C8.3287 7.75249 7.45227 7.76033 7.06799 8.03527C6.96082 8.11194 6.74598 8.32227 6.87296 8.47041C7.00228 8.62129 7.25544 8.56114 7.41858 8.53129C7.59758 8.49853 7.81541 8.4641 7.96195 8.34528C8.16018 8.18455 8.02348 7.92737 7.88078 7.77824C7.67777 7.56609 7.38893 7.46418 7.09842 7.46485C6.82872 7.46547 6.25386 7.59289 6.46262 7.98905C6.69415 8.42843 7.31191 8.60063 7.75452 8.69024C7.81785 8.70306 9.0111 8.91088 8.95399 8.62373C8.93553 8.53093 8.78159 8.38213 8.72852 8.33965C8.45928 8.1241 8.12958 7.98444 7.79962 7.89435C7.33205 7.76671 6.85082 7.74666 6.37018 7.72413" stroke="white" stroke-width="3" stroke-linecap="round"/>
<path d="M8.19637 3.80762C7.67451 3.83787 7.14929 3.88032 6.63391 3.96995" stroke="white" stroke-width="3" stroke-linecap="round"/>
<path d="M6.5 0C5.21442 0 3.95771 0.381218 2.8888 1.09545C1.81988 1.80968 0.986755 2.82484 0.494786 4.01256C0.00281635 5.20028 -0.125905 6.50721 0.124899 7.76809C0.375702 9.02896 0.994767 10.1872 1.90381 11.0962C2.81285 12.0052 3.97104 12.6243 5.23191 12.8751C6.49279 13.1259 7.79972 12.9972 8.98744 12.5052C10.1752 12.0132 11.1903 11.1801 11.9046 10.1112C12.6188 9.04228 13 7.78558 13 6.5C12.9982 4.77665 12.3128 3.12441 11.0942 1.90582C9.87559 0.687224 8.22335 0.00181989 6.5 0ZM8.85375 8.14625C8.90021 8.1927 8.93706 8.24785 8.9622 8.30855C8.98734 8.36925 9.00028 8.4343 9.00028 8.5C9.00028 8.5657 8.98734 8.63075 8.9622 8.69145C8.93706 8.75214 8.90021 8.80729 8.85375 8.85375C8.8073 8.9002 8.75215 8.93705 8.69145 8.9622C8.63075 8.98734 8.5657 9.00028 8.5 9.00028C8.4343 9.00028 8.36925 8.98734 8.30855 8.9622C8.24786 8.93705 8.19271 8.9002 8.14625 8.85375L6.5 7.20687L4.85375 8.85375C4.8073 8.9002 4.75215 8.93705 4.69145 8.9622C4.63075 8.98734 4.5657 9.00028 4.5 9.00028C4.4343 9.00028 4.36925 8.98734 4.30855 8.9622C4.24786 8.93705 4.19271 8.9002 4.14625 8.85375C4.0998 8.80729 4.06295 8.75214 4.03781 8.69145C4.01266 8.63075 3.99972 8.5657 3.99972 8.5C3.99972 8.4343 4.01266 8.36925 4.03781 8.30855C4.06295 8.24785 4.0998 8.1927 4.14625 8.14625L5.79313 6.5L4.14625 4.85375C4.05243 4.75993 3.99972 4.63268 3.99972 4.5C3.99972 4.36732 4.05243 4.24007 4.14625 4.14625C4.24007 4.05243 4.36732 3.99972 4.5 3.99972C4.63268 3.99972 4.75993 4.05243 4.85375 4.14625L6.5 5.79312L8.14625 4.14625C8.19271 4.09979 8.24786 4.06294 8.30855 4.0378C8.36925 4.01266 8.4343 3.99972 8.5 3.99972C8.5657 3.99972 8.63075 4.01266 8.69145 4.0378C8.75215 4.06294 8.8073 4.09979 8.85375 4.14625C8.90021 4.1927 8.93706 4.24785 8.9622 4.30855C8.98734 4.36925 9.00028 4.4343 9.00028 4.5C9.00028 4.5657 8.98734 4.63075 8.9622 4.69145C8.93706 4.75214 8.90021 4.80729 8.85375 4.85375L7.20688 6.5L8.85375 8.14625Z" fill="#8A8888"/>
</svg>
