<svg width="21" height="20" viewBox="0 0 21 20" fill="none" xmlns="http://www.w3.org/2000/svg">
<g clip-path="url(#clip0_315_10972)">
<path d="M20.423 18.954L14.7181 13.3673C16.089 11.7556 16.7727 9.68835 16.6268 7.59562C16.4809 5.50288 15.5168 3.54579 13.935 2.13146C12.3531 0.717125 10.2754 -0.0455437 8.13399 0.00210549C5.99258 0.0497547 3.95237 0.904053 2.43777 2.38728C0.923172 3.87051 0.0508069 5.86847 0.00215002 7.96554C-0.0465069 10.0626 0.732291 12.0973 2.17653 13.6464C3.62077 15.1954 5.61926 16.1396 7.75625 16.2825C9.89324 16.4253 12.0042 15.7558 13.65 14.4133L19.3548 20L20.423 18.954ZM1.53782 8.16382C1.53782 6.84703 1.93656 5.5598 2.6836 4.46492C3.43065 3.37004 4.49245 2.51669 5.73474 2.01277C6.97703 1.50886 8.34401 1.37701 9.66282 1.6339C10.9816 1.8908 12.193 2.5249 13.1438 3.45601C14.0947 4.38713 14.7422 5.57345 15.0045 6.86494C15.2668 8.15644 15.1322 9.49511 14.6176 10.7117C14.103 11.9282 13.2316 12.9681 12.1136 13.6996C10.9956 14.4312 9.68112 14.8217 8.33647 14.8217C6.53397 14.8197 4.80587 14.1176 3.53131 12.8695C2.25675 11.6213 1.53982 9.92899 1.53782 8.16382Z" fill="#FFB415"/>
</g>
<defs>
<clipPath id="clip0_315_10972">
<rect width="20.423" height="20" fill="white"/>
</clipPath>
</defs>
</svg>
