<svg width="27" height="27" viewBox="0 0 27 27" fill="none" xmlns="http://www.w3.org/2000/svg">
<path d="M4.5 10.125H22.5L21.5606 20.4536C21.5098 21.0127 21.2519 21.5325 20.8375 21.9111C20.4231 22.2897 19.8821 22.4998 19.3207 22.5H7.67925C7.11792 22.4998 6.57694 22.2897 6.16252 21.9111C5.7481 21.5325 5.49018 21.0127 5.43938 20.4536L4.5 10.125Z" stroke="black" stroke-width="1.625" stroke-linejoin="round"/>
<path d="M9.34619 9.34625V6.67592C9.34619 5.73163 9.78383 4.82602 10.5628 4.15831C11.3418 3.4906 12.3984 3.11548 13.5 3.11548C14.6017 3.11548 15.6583 3.4906 16.4373 4.15831C17.2162 4.82602 17.6539 5.73163 17.6539 6.67592V9.34625" stroke="black" stroke-width="1.625" stroke-linecap="round"/>
</svg>
